# AST/ASF file generated using VICON BodyLanguage
# -----------------------------------------------
:version 1.10
:name VICON
:units
  mass 1.0
  length 0.45
  angle deg
:documentation
   .ast/.asf automatically generated from VICON data using
   VICON BodyBuilder and BodyLanguage model FoxedUp or BRILLIANT.MOD
:root
   order TX TY TZ RX RY RZ
   axis XYZ
   position 0 0 0  
   orientation 0 0 0 
:bonedata
  begin
     id 1 
     name lhipjoint
     direction 0.62366 -0.717238 0.310833 
     length 2.53602 
     axis 0 0 0  XYZ
  end
  begin
     id 2 
     name lfemur
     direction 0.34202 -0.939693 0  
     length 7.40817  
     axis 0 0 20  XYZ
    dof rx ry rz
    limits (-160.0 20.0)
           (-70.0 70.0)
           (-60.0 70.0)
  end
  begin
     id 3 
     name ltibia
     direction 0.34202 -0.939693 0   
     length 7.7045   
     axis 0 0 20   XYZ
    dof rx
    limits (-10.0 170.0)
  end
  begin
     id 4 
     name lfoot
     direction 0.0673888 -0.185149 0.980397   
     length 2.09456   
     axis -90 7.62852e-016 20   XYZ
    dof rx rz
    limits (-45.0 90.0)
           (-70.0 20.0)
  end
  begin
     id 5 
     name ltoes
     direction 1.53575e-011 -4.21994e-011 1   
     length 1.05543   
     axis -90 7.62852e-016 20   XYZ
    dof rx
    limits (-90.0 20.0)
  end
  begin
     id 6 
     name rhipjoint
     direction -0.489018 -0.800347 0.346851   
     length 2.27268  
     axis 0 0 0  XYZ 
  end
  begin
     id 7 
     name rfemur
     direction -0.34202 -0.939693 0   
     length 7.55487   
     axis 0 0 -20   XYZ
    dof rx ry rz
    limits (-160.0 20.0)
           (-70.0 70.0)
           (-70.0 60.0)
  end
  begin
     id 8 
     name rtibia
     direction -0.34202 -0.939693 0   
     length 7.78969   
     axis 0 0 -20   XYZ
    dof rx
    limits (-10.0 170.0)
 end
 begin
     id 9 
     name rfoot
     direction -0.0859318 -0.236096 0.967923   
     length 2.19143  
     axis -90 -7.62852e-016 -20   XYZ
    dof rx rz
    limits (-45.0 90.0)
           (-20.0 70.0)
  end
  begin
     id 10 
     name rtoes
     direction -1.53538e-011 -4.21989e-011 1   
     length 1.09845   
     axis -90 -7.62852e-016 -20   XYZ
    dof rx
    limits (-90.0 20.0)
  end
  begin
     id 11 
     name lowerback
     direction -0.00762546 0.998978 -0.0445553   
     length 1.98161   
     axis 0 0 0   XYZ
    dof rx ry rz
    limits (-20.0 45.0)
           (-30.0 30.0)
           (-30.0 30.0)
  end
  begin
     id 12 
     name upperback
     direction 0.0422361 0.998867 -0.0219156   
     length 1.97558   
     axis 0 0 0   XYZ
    dof rx ry rz
    limits (-20.0 45.0)
           (-30.0 30.0)
           (-30.0 30.0)
  end
  begin
     id 13 
     name thorax
     direction 0.0442465 0.999021 7.47603e-005   
     length 1.97799   
     axis 0 0 0   XYZ
    dof rx ry rz
    limits (-20.0 45.0)
           (-30.0 30.0)
           (-30.0 30.0)
  end
  begin
     id 14 
     name lowerneck
     direction 0.00312169 0.984641 0.174564   
     length 1.78995   
     axis 0 0 0   XYZ
    dof rx ry rz
    limits (-20.0 45.0)
           (-30.0 30.0)
           (-30.0 30.0)
  end
  begin
     id 15 
     name upperneck
     direction -0.0383028 0.985255 -0.166749   
     length 1.83053   
     axis 0 0 0   XYZ
    dof rx ry rz
    limits (-20.0 45.0)
           (-30.0 30.0)
           (-30.0 30.0)
  end
  begin
     id 16
     name head
     direction -0.0129546 0.997059 -0.0755386  
     length 1.84088  
     axis 0 0 0   XYZ
    dof rx ry rz
    limits (-20.0 45.0)
           (-30.0 30.0)
           (-30.0 30.0)
  end
  begin
     id 17 
     name lclavicle
     direction 0.912857 0.370519 -0.171488  
     length 3.51279  
     axis 0 0 0   XYZ
    dof ry rz
    limits (-20.0 10.0)
           (0.0 20.0)
  end
  begin
     id 18 
     name lhumerus
     direction 1 -4.48962e-011 3.64361e-027   
     length 4.95663   
     axis 180 -30 -90   XYZ
    dof rx ry rz
    limits (-60.0 90.0)
           (-90.0 90.0)
           (-90.0 90.0)
  end
  begin
     id 19
     name lradius
     direction 1 -4.48974e-011 5.97202e-027   
     length 3.38177   
     axis 180 -30 -90   XYZ
    dof rx
    limits (-10.0 170.0)
  end
  begin
     id 20
     name lwrist
     direction 1 -4.4896e-011 9.83288e-027   
     length 1.69088   
     axis -9.31221e-015 90 90   XYZ
    dof ry
    limits (-180.0 0.0)
 end
  begin
     id 21 
     name lhand
     direction 1 -4.4902e-011 1.96551e-026   
     length 0.662909   
     axis -1.25475e-014 90 90   XYZ
    dof rx rz
    limits (-90.0 90.0)
           (-45.0 45.0)
  end
  begin
     id 22 
     name lfingers
     direction 1 -4.48971e-011 3.93277e-026   
     length 0.534454   
     axis -2.50945e-014 90 90   XYZ
    dof rx
    limits (0.0 90.0)
  end
  begin
     id 23
     name lthumb
     direction 0.707107 -6.34933e-011 0.707107   
     length 0.767373   
     axis -90 45 -4.80359e-014   XYZ
    dof rx rz
    limits (-45.0 45.0)
           (-45.0 45.0)
  end
  begin
     id 24 
     name rclavicle
     direction -0.900919 0.395364 -0.178976   
     length 3.40627  
     axis 0 0 0   XYZ 
    dof ry rz
    limits (-10.0 20.0)
           (-20.0 0.0)
  end
  begin
     id 25 
     name rhumerus
     direction -1 -4.48969e-011 1.03875e-027  
     length 5.08365   
     axis 180 30 90   XYZ
    dof rx ry rz
    limits (-90.0 60.0)
           (-90.0 90.0)
           (-90.0 90.0)
  end
  begin
     id 26 
     name rradius
     direction -1 -4.48951e-011 5.02733e-027   
     length 3.35984   
     axis 180 30 90   XYZ
    dof rx
    limits (-10.0 170.0)
  end
  begin
     id 27 
     name rwrist
     direction -1 -4.49011e-011 9.82828e-027   
     length 1.67992   
     axis -9.31221e-015 -90 -90   XYZ
    dof ry
    limits (-180.0 0.0)
  end
  begin
     id 28
     name rhand
     direction -1 -4.48894e-011 1.96774e-026   
     length 0.820764   
     axis -1.25475e-014 -90 -90   XYZ
    dof rx rz
    limits (-90.0 90.0)
           (-45.0 45.0)
  end
  begin
     id 29
     name rfingers
     direction -1 -4.49095e-011 3.92833e-026   
     length 0.661721   
     axis -2.50945e-014 -90 -90   XYZ
    dof rx
    limits (0.0 90.0)
  end
  begin
     id 30
     name rthumb
     direction -0.707107 -6.34881e-011 0.707107   
     length 0.950103   
     axis -90 -45 4.80359e-014   XYZ
    dof rx rz
    limits (-45.0 45.0)
           (-45.0 45.0)
  end
:hierarchy
  begin
    root lhipjoint rhipjoint lowerback
    lhipjoint lfemur
    lfemur ltibia
    ltibia lfoot
    lfoot ltoes
    rhipjoint rfemur
    rfemur rtibia
    rtibia rfoot
    rfoot rtoes
    lowerback upperback
    upperback thorax
    thorax lowerneck lclavicle rclavicle
    lowerneck upperneck
    upperneck head
    lclavicle lhumerus
    lhumerus lradius
    lradius lwrist
    lwrist lhand lthumb
    lhand lfingers
    rclavicle rhumerus
    rhumerus rradius
    rradius rwrist
    rwrist rhand rthumb
    rhand rfingers
  end

#!OML:ASF I:\golf\golf\golf 2\Subject 1\2002-09-07\Subject1.ASF
:FULLY-SPECIFIED
:DEGREES
109
root -6.82418 17.6315 0.840234 -15.8691 72.5635 -30.0944
lowerback 3.80752 -0.296117 -8.47443
upperback 5.15563 -0.452739 1.589
thorax 3.34206 -0.520898 6.43485
lowerneck -13.8371 6.71514 1.98465
upperneck 34.1147 13.116 -6.96397
head 14.7903 5.23439 -0.921857
rclavicle -4.05521e-014 6.36111e-015
rhumerus -14.6681 1.90467 -98.5425
rradius 59.3508
rwrist -69.2192
rhand -50.4402 5.45431
rfingers 7.12502
rthumb -23.0116 -23.192
lclavicle -4.05521e-014 6.36111e-015
lhumerus 60.2664 -76.0919 40.4068
lradius 24.6861
lwrist 8.37647
lhand -3.12649 37.6306
lfingers 7.12502
lthumb -157.407 246.328
rfemur -34.6315 -1.59233 24.9829
rtibia 36.2095
rfoot -11.0521 10.1142
rtoes 11.8512
lfemur -20.3862 11.9827 1.02523
ltibia 28.5306
lfoot -11.2161 9.04697
ltoes -23.9153
110
root -6.82329 17.6281 0.884425 -15.4982 71.9295 -29.7149
lowerback 3.73748 -0.538478 -8.51764
upperback 5.14175 -0.766525 1.3578
thorax 3.41839 -0.677736 6.21463
lowerneck -13.645 7.14434 2.26896
upperneck 33.8756 13.6426 -7.03265
head 14.6997 5.48913 -0.914326
rclavicle -1.19271e-014 1.27222e-014
rhumerus -14.7138 1.40277 -98.5128
rradius 60.6228
rwrist -68.6652
rhand -51.2748 7.53819
rfingers 7.12502
rthumb -23.8121 -21.0061
lclavicle -1.19271e-014 1.27222e-014
lhumerus 62.4006 -75.7231 38.5394
lradius 24.8226
lwrist 7.62659
lhand -4.03562 36.2143
lfingers 7.12502
lthumb -158.28 245.016
rfemur -34.6308 -1.41352 25.3621
rtibia 36.2566
rfoot -10.9924 10.5903
rtoes 12.4694
lfemur -19.8958 12.1478 1.38281
ltibia 28.3681
lfoot -11.2392 9.46955
ltoes -23.985
111
root -6.82149 17.6228 0.935115 -14.7273 71.1157 -28.9955
lowerback 3.53772 -0.72946 -8.84242
upperback 5.08924 -1.00912 1.22984
thorax 3.52581 -0.812442 6.26125
lowerneck -13.3862 7.5942 2.51541
upperneck 33.579 14.271 -7.27397
head 14.5947 5.76671 -0.954432
rclavicle -3.4191e-014 -6.36111e-015
rhumerus -14.7424 0.949334 -98.2749
rradius 61.8927
rwrist -67.603
rhand -51.9169 8.22966
rfingers 7.12502
rthumb -24.4278 -20.233
lclavicle -3.4191e-014 -6.36111e-015
lhumerus 62.7566 -75.1823 38.6843
lradius 24.8358
lwrist 6.73922
lhand -4.78792 34.6122
lfingers 7.12502
lthumb -159.003 243.496
rfemur -34.7122 -0.972211 25.6883
rtibia 36.3461
rfoot -11.0052 10.866
rtoes 12.5494
lfemur -19.2707 12.4474 1.72562
ltibia 28.1653
lfoot -11.473 9.763
ltoes -23.0238
112
root -6.81719 17.6179 0.963518 -14.6793 70.8991 -28.8939
lowerback 3.62856 -1.15343 -8.82871
upperback 5.06877 -1.58039 1.11489
thorax 3.54902 -1.09519 6.13138
lowerneck -13.1679 8.07103 2.67495
upperneck 33.2662 14.9802 -7.56623
head 14.5011 6.06133 -0.983859
rclavicle 5.24792e-014 5.08889e-014
rhumerus -14.7126 0.792966 -97.8893
rradius 63.1754
rwrist -66.509
rhand -52.6383 8.75257
rfingers 7.12502
rthumb -25.1192 -19.615
lclavicle 5.24792e-014 5.08889e-014
lhumerus 62.6393 -74.559 39.3714
lradius 24.8192
lwrist 6.06424
lhand -5.42314 33.0061
lfingers 7.12502
lthumb -159.613 241.956
rfemur -34.6933 -1.2324 25.9752
rtibia 36.4496
rfoot -10.9548 11.235
rtoes 12.8976
lfemur -18.8887 11.9849 1.98814
ltibia 27.9782
lfoot -11.5796 10.1894
ltoes -22.2323
113
root -6.81509 17.6104 1.02666 -13.8078 69.8625 -27.9447
lowerback 3.40567 -1.27671 -9.47548
upperback 5.09333 -1.73002 1.10232
thorax 3.75913 -1.2051 6.47789
lowerneck -12.8773 8.56649 2.72621
upperneck 32.8217 15.6958 -7.80748
head 14.3205 6.36198 -0.979003
rclavicle -3.18055e-015 1.27222e-014
rhumerus -14.7014 0.711322 -97.5169
rradius 64.5153
rwrist -65.8595
rhand -53.3929 10.9561
rfingers 7.12502
rthumb -25.8421 -17.3082
lclavicle -3.18055e-015 1.27222e-014
lhumerus 63.3897 -73.9873 39.1899
lradius 24.8455
lwrist 5.60487
lhand -5.9876 31.8841
lfingers 7.12502
lthumb -160.156 240.891
rfemur -34.6286 -0.626827 26.3082
rtibia 36.5737
rfoot -10.8587 11.6788
rtoes 13.5901
lfemur -18.089 12.5291 2.34951
ltibia 27.7524
lfoot -11.5821 10.596
ltoes -22.5266
114
root -6.81265 17.6034 1.04904 -13.5627 69.7276 -27.8378
lowerback 3.44772 -1.72847 -9.3855
upperback 4.95509 -2.34301 1.01412
thorax 3.69198 -1.49893 6.32916
lowerneck -12.5522 9.04831 2.68703
upperneck 32.3886 16.4054 -8.0172
head 14.1293 6.6587 -0.951273
rclavicle 5.48646e-014 -2.22639e-014
rhumerus -14.7527 0.400268 -97.1074
rradius 65.8175
rwrist -64.7804
rhand -54.3295 13.6065
rfingers 7.12502
rthumb -26.7387 -14.5241
lclavicle 5.48646e-014 -2.22639e-014
lhumerus 64.3942 -73.454 38.7746
lradius 24.9356
lwrist 5.00168
lhand -6.46464 30.7574
lfingers 7.12502
lthumb -160.614 239.811
rfemur -34.8593 -1.09096 26.5941
rtibia 36.6875
rfoot -10.8334 12.2439
rtoes 14.1108
lfemur -17.998 12.254 2.47031
ltibia 27.5203
lfoot -11.4336 11.0139
ltoes -22.7756
115
root -6.80943 17.602 1.0994 -12.5659 68.8981 -26.7742
lowerback 3.42985 -1.92139 -9.89061
upperback 4.87203 -2.608 0.934766
thorax 3.69068 -1.6456 6.5274
lowerneck -12.3614 9.52114 2.63788
upperneck 32.092 17.124 -8.20801
head 14.0301 6.95044 -0.905406
rclavicle 1.05753e-013 7.95139e-015
rhumerus -14.6743 -0.105345 -96.7013
rradius 67.0309
rwrist -63.4011
rhand -54.9561 15.3609
rfingers 7.12502
rthumb -27.3382 -12.6767
lclavicle 1.05753e-013 7.95139e-015
lhumerus 64.3407 -72.7837 39.5046
lradius 24.976
lwrist 3.99338
lhand -7.16699 29.2486
lfingers 7.12502
lthumb -161.29 238.369
rfemur -34.823 -0.749286 26.7684
rtibia 36.7923
rfoot -10.8052 12.7207
rtoes 15.1003
lfemur -17.3618 12.6418 2.5812
ltibia 27.2973
lfoot -11.2866 11.5722
ltoes -24.1504
116
root -6.80596 17.5979 1.15501 -11.6616 67.9291 -25.7383
lowerback 3.31303 -2.0394 -10.4338
upperback 4.89713 -2.75335 0.82774
thorax 3.84241 -1.7439 6.71212
lowerneck -12.2813 9.96575 2.6898
upperneck 31.7727 17.7697 -8.41648
head 13.9538 7.21601 -0.888204
rclavicle -6.59965e-014 3.18055e-014
rhumerus -14.4218 -0.639931 -96.3911
rradius 68.3834
rwrist -62.6331
rhand -55.1284 16.4588
rfingers 7.12502
rthumb -27.503 -11.5526
lclavicle -6.59965e-014 3.18055e-014
lhumerus 64.393 -72.0529 40.2929
lradius 24.9294
lwrist 2.87465
lhand -8.08632 27.6609
lfingers 7.12502
lthumb -162.174 236.864
rfemur -34.6892 -0.193522 26.9435
rtibia 36.8921
rfoot -10.7725 13.1126
rtoes 15.7414
lfemur -16.5942 13.0592 2.75959
ltibia 27.1113
lfoot -11.1435 12.211
ltoes -25.5065
117
root -6.80252 17.5872 1.18723 -11.5029 67.4515 -25.6249
lowerback 3.32499 -2.31019 -10.2849
upperback 4.81839 -3.11473 0.648192
thorax 3.79992 -1.90924 6.43178
lowerneck -12.0853 10.3824 2.91654
upperneck 31.4651 18.3168 -8.5825
head 13.8644 7.47099 -0.905421
rclavicle 3.65764e-014 -2.22639e-014
rhumerus -14.2635 -1.26832 -96.2012
rradius 69.7291
rwrist -61.8095
rhand -55.8528 18.0533
rfingers 7.12502
rthumb -28.1956 -9.84595
lclavicle 3.65764e-014 -2.22639e-014
lhumerus 65.6655 -71.5906 39.7276
lradius 24.963
lwrist 2.33238
lhand -8.29037 26.9693
lfingers 7.12502
lthumb -162.371 236.19
rfemur -34.7481 -0.162718 27.2766
rtibia 36.9917
rfoot -10.753 13.4595
rtoes 15.6636
lfemur -16.2191 12.867 3.04663
ltibia 26.9221
lfoot -10.9527 12.8163
ltoes -25.8899
118
root -6.7994 17.5772 1.22604 -11.2478 66.8567 -25.4086
lowerback 3.39527 -2.58233 -10.2269
upperback 4.68768 -3.48982 0.492298
thorax 3.67665 -2.07997 6.23253
lowerneck -11.8782 10.8334 3.00832
upperneck 31.1821 18.9272 -8.67306
head 13.7668 7.74773 -0.863311
rclavicle 5.00937e-014 -3.65764e-014
rhumerus -14.1479 -1.73138 -96.0385
rradius 71.026
rwrist -60.8059
rhand -55.9773 20.8319
rfingers 7.12502
rthumb -28.3146 -7.04767
lclavicle 5.00937e-014 -3.65764e-014
lhumerus 66.5809 -71.1161 39.3489
lradius 25.0819
lwrist 2.13764
lhand -8.10033 27.3734
lfingers 7.12502
lthumb -162.188 236.578
rfemur -34.7983 -0.0787909 27.6324
rtibia 37.1043
rfoot -10.7269 13.8352
rtoes 15.6732
lfemur -15.7731 12.7973 3.34785
ltibia 26.7625
lfoot -10.972 13.3302
ltoes -25.6457
